<svg width="40" height="28" viewBox="0 0 40 28" fill="none" xmlns="http://www.w3.org/2000/svg">
<path d="M8.78049 9.98951C13.6083 9.98951 17.522 13.9033 17.522 18.731C17.522 23.5587 13.6083 27.4724 8.78049 27.4724C3.9527 27.4724 0.0390244 23.5587 0.0390244 18.731L0 17.4822C0 7.82662 7.82736 -0.000732422 17.4829 -0.000732422V4.99439C14.1474 4.99439 11.0114 6.29336 8.65272 8.65199C8.19871 9.10608 7.78435 9.5892 7.41058 10.0967C7.85694 10.0264 8.31438 9.98951 8.78049 9.98951ZM31.2585 9.98951C36.0862 9.98951 40 13.9033 40 18.731C40 23.5587 36.0862 27.4724 31.2585 27.4724C26.4308 27.4724 22.5171 23.5587 22.5171 18.731L22.478 17.4822C22.478 7.82662 30.3053 -0.000732422 39.961 -0.000732422V4.99439C36.6255 4.99439 33.4893 6.29336 31.1308 8.65199C30.6767 9.10608 30.2623 9.5892 29.8885 10.0967C30.3349 10.0264 30.7924 9.98951 31.2585 9.98951Z" fill="#CEE8EF"/>
</svg>
