<svg width="14" height="16" viewBox="0 0 14 16" fill="none" xmlns="http://www.w3.org/2000/svg">
<path d="M7 7.63636C9.20938 7.63636 11 5.92713 11 3.81818C11 1.70923 9.20938 0 7 0C4.79063 0 3 1.70923 3 3.81818C3 5.92713 4.79063 7.63636 7 7.63636ZM9.8 8.59091H9.27812C8.58437 8.89517 7.8125 9.06818 7 9.06818C6.1875 9.06818 5.41875 8.89517 4.72188 8.59091H4.2C1.88125 8.59091 0 10.3866 0 12.6V13.8409C0 14.6314 0.671875 15.2727 1.5 15.2727H12.5C13.3281 15.2727 14 14.6314 14 13.8409V12.6C14 10.3866 12.1187 8.59091 9.8 8.59091Z" fill="#4F4F4F"/>
</svg>
