<svg width="38" height="36" viewBox="0 0 38 36" fill="none" xmlns="http://www.w3.org/2000/svg">
<path d="M23.1488 0.632655C23.6758 1.30062 26.9562 5.59047 24.1508 6.95609C23.4086 7.31976 22.5328 7.31976 21.7906 6.95609C18.9851 5.59047 22.2656 1.30062 22.7926 0.632655C22.8668 0.53617 23.0078 0.513905 23.1043 0.588123C23.1191 0.602967 23.134 0.617811 23.1488 0.632655Z" fill="white"/>
<path d="M18.4805 32.213C15.4746 32.213 12.6469 31.7454 10.5094 30.8993C8.24569 30.0013 6.99139 28.7544 6.99139 27.3962C6.99139 25.9044 8.4535 24.5759 11.118 23.6704C11.348 23.5888 11.6004 23.7149 11.682 23.945C11.7637 24.1751 11.6375 24.4274 11.4074 24.5091C9.20311 25.2661 7.88202 26.3423 7.88202 27.3962C7.88202 28.3536 8.95819 29.3333 10.8359 30.0755C12.8695 30.8845 15.5859 31.3224 18.4805 31.3224C21.375 31.3224 24.0914 30.8771 26.125 30.0755C28.0027 29.3333 29.0789 28.3536 29.0789 27.3962C29.0789 26.4907 28.0992 25.5556 26.3996 24.8282C26.1695 24.7317 26.0656 24.472 26.1621 24.2493C26.2586 24.0192 26.5183 23.9153 26.741 24.0118H26.7484C28.8266 24.895 29.9695 26.0974 29.9695 27.3962C29.9695 28.7618 28.7226 30.0013 26.4516 30.8993C24.3141 31.7528 21.4863 32.213 18.4805 32.213Z" fill="#E0E0E0"/>
<path d="M12.3871 35.9015C12.3574 35.9015 12.3352 35.9015 12.3055 35.8941C5.0543 34.5879 0.371094 31.3519 0.371094 27.6484C0.371094 25.882 1.43242 24.1898 3.44375 22.75C5.33633 21.3992 7.97852 20.323 11.1031 19.6402C11.3406 19.5883 11.5781 19.7367 11.6301 19.9816C11.682 20.2266 11.5336 20.4566 11.2887 20.5086C5.20273 21.8445 1.26172 24.65 1.26172 27.6484C1.26172 30.8472 5.7668 33.8086 12.4613 35.0183C12.7062 35.0629 12.8621 35.2929 12.8176 35.5379C12.7879 35.7457 12.6023 35.9015 12.3871 35.9015Z" fill="#E0E0E0"/>
<path d="M34.2445 22.9577C32.5375 21.6588 30.1105 20.5827 27.2383 19.8553C27.0008 19.7959 26.7558 19.937 26.6965 20.1819C26.6371 20.4194 26.7781 20.6643 27.023 20.7237C29.7766 21.4213 32.0922 22.4381 33.7101 23.6702C34.8234 24.5163 36.1519 25.8967 36.1519 27.6483C36.1519 30.7135 32.0996 33.5338 25.8281 34.8475C25.6203 34.892 25.4719 35.0702 25.4719 35.2854C25.4719 35.5303 25.6723 35.7307 25.9172 35.7307C25.9469 35.7307 25.9765 35.7307 26.0062 35.7233C29.2051 35.0553 31.9289 33.9792 33.8734 32.6135C35.9441 31.1588 37.0426 29.4444 37.0426 27.6483C37.0351 25.9709 36.0703 24.353 34.2445 22.9577Z" fill="#E0E0E0"/>
<path d="M19.4899 8.7376C20.9372 10.5931 30.0067 22.4458 22.2657 26.2087C20.2024 27.2106 17.7977 27.2106 15.7418 26.2087C8.00083 22.4458 17.0704 10.5931 18.5176 8.7376C18.577 8.66338 18.6512 8.604 18.7403 8.55947C18.8219 8.51494 18.9184 8.49268 19.0075 8.49268C19.193 8.49268 19.3711 8.58916 19.4899 8.7376Z" fill="white"/>
<path d="M17.9609 26.2086C10.9769 22.8168 17.6714 12.8418 20.1132 9.56133C19.8461 9.20508 19.6308 8.92305 19.4898 8.74492C19.3711 8.58906 19.1929 8.5 19 8.5C18.9035 8.5 18.8144 8.52227 18.7328 8.5668C18.6437 8.61133 18.5695 8.6707 18.5101 8.74492C17.0628 10.6004 7.99332 22.4531 15.7343 26.216C17.0925 26.8766 18.6214 27.1066 20.1132 26.884C19.3636 26.7652 18.6437 26.5352 17.9609 26.2086Z" fill="#7597BF"/>
<path d="M19.6011 25.1249C19.3562 25.1249 19.1558 24.9245 19.1558 24.6796C19.1558 24.4347 19.3562 24.2343 19.6011 24.2343C21.2339 24.2343 22.5625 22.9058 22.5625 21.2729C22.5625 21.028 22.7629 20.8276 23.0078 20.8276C23.2527 20.8276 23.4531 21.028 23.4531 21.2729C23.4531 23.403 21.7312 25.1249 19.6011 25.1249Z" fill="#F4F8FC"/>
</svg>
