<svg width="11" height="14" viewBox="0 0 11 14" fill="none" xmlns="http://www.w3.org/2000/svg">
<path d="M5.50011 12.4446C4.98493 11.7897 4.17657 10.7237 3.426 9.57335C2.93242 8.81688 2.47051 8.03401 2.13371 7.31421C1.79015 6.57995 1.60476 5.9688 1.60476 5.53774C1.60476 3.38959 3.35262 1.64151 5.50022 1.64151C7.64735 1.64151 9.39528 3.38951 9.39567 5.53774L5.50011 12.4446ZM5.50011 12.4446C6.01527 11.7895 6.82367 10.7235 7.5743 9.57305C8.0679 8.81657 8.52985 8.03372 8.86668 7.31396C9.21025 6.57979 9.39565 5.96876 9.39567 5.53782L5.50011 12.4446Z" stroke="#4F4F4F"/>
<path d="M4.16848 5.53763C4.16848 4.80322 4.76647 4.20538 5.50035 4.20538C6.23423 4.20538 6.83221 4.80322 6.83221 5.53763C6.83221 6.27204 6.23423 6.86988 5.50035 6.86988C4.76647 6.86988 4.16848 6.27204 4.16848 5.53763Z" stroke="#4F4F4F"/>
</svg>
