<svg width="13" height="17" viewBox="0 0 13 17" fill="none" xmlns="http://www.w3.org/2000/svg">
<path d="M12.1244 4.28945V4.28949L11.7274 0H9.61712L9.22008 4.28949H8.37858V5.29943H9.12658H9.32563V11.883C9.32563 12.4212 8.88768 12.8592 8.34936 12.8592C7.81104 12.8592 7.37309 12.4212 7.37309 11.883V8.07641C7.37309 6.05304 5.72697 4.40693 3.7036 4.40693C1.68023 4.40693 0.0341187 6.05304 0.0341187 8.07641V17H2.72733V8.07641C2.72733 7.53812 3.16528 7.10014 3.7036 7.10014C4.24193 7.10014 4.67988 7.53812 4.67988 8.07641V11.883C4.67988 13.9063 6.32599 15.5524 8.34936 15.5524C10.3727 15.5524 12.0188 13.9063 12.0188 11.883V5.29943H12.2179H12.9659V4.28949H12.1244V4.28945Z" fill="white"/>
</svg>
