<svg width="185" height="44" viewBox="0 0 185 44" fill="none" xmlns="http://www.w3.org/2000/svg">
<path d="M56.416 14.264C57.488 14.552 58.304 15.048 58.864 15.752C59.424 16.44 59.704 17.304 59.704 18.344C59.704 19.816 59.16 20.96 58.072 21.776C56.984 22.592 55.408 23 53.344 23H45.376V6.2H52.888C54.776 6.2 56.248 6.576 57.304 7.328C58.36 8.08 58.888 9.144 58.888 10.52C58.888 11.4 58.672 12.16 58.24 12.8C57.824 13.44 57.216 13.928 56.416 14.264ZM48.448 13.376H52.624C53.632 13.376 54.4 13.176 54.928 12.776C55.456 12.376 55.72 11.784 55.72 11C55.72 10.216 55.456 9.624 54.928 9.224C54.4 8.808 53.632 8.6 52.624 8.6H48.448V13.376ZM53.248 20.6C55.456 20.6 56.56 19.768 56.56 18.104C56.56 16.472 55.456 15.656 53.248 15.656H48.448V20.6H53.248ZM68.6343 23.168C67.3383 23.168 66.1703 22.888 65.1303 22.328C64.0903 21.768 63.2743 20.992 62.6823 20C62.1063 18.992 61.8183 17.856 61.8183 16.592C61.8183 15.328 62.1063 14.2 62.6823 13.208C63.2743 12.216 64.0903 11.44 65.1303 10.88C66.1703 10.32 67.3383 10.04 68.6343 10.04C69.9463 10.04 71.1223 10.32 72.1623 10.88C73.2023 11.44 74.0103 12.216 74.5863 13.208C75.1783 14.2 75.4743 15.328 75.4743 16.592C75.4743 17.856 75.1783 18.992 74.5863 20C74.0103 20.992 73.2023 21.768 72.1623 22.328C71.1223 22.888 69.9463 23.168 68.6343 23.168ZM68.6343 20.6C69.7383 20.6 70.6503 20.232 71.3703 19.496C72.0903 18.76 72.4503 17.792 72.4503 16.592C72.4503 15.392 72.0903 14.424 71.3703 13.688C70.6503 12.952 69.7383 12.584 68.6343 12.584C67.5303 12.584 66.6183 12.952 65.8983 13.688C65.1943 14.424 64.8423 15.392 64.8423 16.592C64.8423 17.792 65.1943 18.76 65.8983 19.496C66.6183 20.232 67.5303 20.6 68.6343 20.6ZM91.9773 20.456V25.856H89.1693V23H79.2812V25.856H76.4973V20.456H77.0973C77.9133 20.424 78.4653 19.904 78.7533 18.896C79.0573 17.872 79.2573 16.432 79.3533 14.576L79.5213 10.184H90.0813V20.456H91.9773ZM82.0893 14.792C82.0253 16.264 81.9053 17.464 81.7293 18.392C81.5533 19.32 81.2333 20.008 80.7693 20.456H87.0813V12.728H82.1613L82.0893 14.792ZM100.369 23.168C99.0726 23.168 97.9046 22.888 96.8646 22.328C95.8246 21.768 95.0086 20.992 94.4166 20C93.8406 18.992 93.5526 17.856 93.5526 16.592C93.5526 15.328 93.8406 14.2 94.4166 13.208C95.0086 12.216 95.8246 11.44 96.8646 10.88C97.9046 10.32 99.0726 10.04 100.369 10.04C101.681 10.04 102.857 10.32 103.897 10.88C104.937 11.44 105.745 12.216 106.321 13.208C106.913 14.2 107.209 15.328 107.209 16.592C107.209 17.856 106.913 18.992 106.321 20C105.745 20.992 104.937 21.768 103.897 22.328C102.857 22.888 101.681 23.168 100.369 23.168ZM100.369 20.6C101.473 20.6 102.385 20.232 103.105 19.496C103.825 18.76 104.185 17.792 104.185 16.592C104.185 15.392 103.825 14.424 103.105 13.688C102.385 12.952 101.473 12.584 100.369 12.584C99.2646 12.584 98.3526 12.952 97.6326 13.688C96.9286 14.424 96.5766 15.392 96.5766 16.592C96.5766 17.792 96.9286 18.76 97.6326 19.496C98.3526 20.232 99.2646 20.6 100.369 20.6ZM119.46 16.328C121.044 16.808 121.836 17.832 121.836 19.4C121.836 20.552 121.404 21.44 120.54 22.064C119.676 22.688 118.396 23 116.7 23H110.172V10.184H116.436C118.004 10.184 119.228 10.472 120.108 11.048C120.988 11.624 121.428 12.44 121.428 13.496C121.428 14.152 121.252 14.72 120.9 15.2C120.564 15.68 120.084 16.056 119.46 16.328ZM113.028 15.536H116.172C117.724 15.536 118.5 15 118.5 13.928C118.5 12.888 117.724 12.368 116.172 12.368H113.028V15.536ZM116.46 20.816C118.108 20.816 118.932 20.28 118.932 19.208C118.932 18.648 118.74 18.232 118.356 17.96C117.972 17.672 117.372 17.528 116.556 17.528H113.028V20.816H116.46ZM130.744 23.168C129.448 23.168 128.28 22.888 127.24 22.328C126.2 21.768 125.384 20.992 124.792 20C124.216 18.992 123.928 17.856 123.928 16.592C123.928 15.328 124.216 14.2 124.792 13.208C125.384 12.216 126.2 11.44 127.24 10.88C128.28 10.32 129.448 10.04 130.744 10.04C132.056 10.04 133.232 10.32 134.272 10.88C135.312 11.44 136.12 12.216 136.696 13.208C137.288 14.2 137.584 15.328 137.584 16.592C137.584 17.856 137.288 18.992 136.696 20C136.12 20.992 135.312 21.768 134.272 22.328C133.232 22.888 132.056 23.168 130.744 23.168ZM130.744 20.6C131.848 20.6 132.76 20.232 133.48 19.496C134.2 18.76 134.56 17.792 134.56 16.592C134.56 15.392 134.2 14.424 133.48 13.688C132.76 12.952 131.848 12.584 130.744 12.584C129.64 12.584 128.728 12.952 128.008 13.688C127.304 14.424 126.952 15.392 126.952 16.592C126.952 17.792 127.304 18.76 128.008 19.496C128.728 20.232 129.64 20.6 130.744 20.6ZM148.016 16.328C148.816 16.552 149.432 16.92 149.864 17.432C150.312 17.928 150.536 18.528 150.536 19.232C150.536 20.016 150.272 20.712 149.744 21.32C149.216 21.912 148.488 22.376 147.56 22.712C146.632 23.048 145.576 23.216 144.392 23.216C143.4 23.216 142.432 23.104 141.488 22.88C140.544 22.64 139.688 22.304 138.92 21.872L139.784 19.64C140.408 19.992 141.112 20.264 141.896 20.456C142.68 20.648 143.464 20.744 144.248 20.744C145.256 20.744 146.04 20.592 146.6 20.288C147.176 19.968 147.464 19.536 147.464 18.992C147.464 18.496 147.24 18.112 146.792 17.84C146.36 17.568 145.744 17.432 144.944 17.432H142.448V15.416H144.704C145.456 15.416 146.04 15.288 146.456 15.032C146.888 14.776 147.104 14.416 147.104 13.952C147.104 13.488 146.848 13.12 146.336 12.848C145.824 12.576 145.12 12.44 144.224 12.44C142.944 12.44 141.592 12.752 140.168 13.376L139.4 11.168C141.08 10.384 142.776 9.992 144.488 9.992C145.576 9.992 146.552 10.144 147.416 10.448C148.28 10.736 148.952 11.152 149.432 11.696C149.928 12.224 150.176 12.832 150.176 13.52C150.176 14.144 149.984 14.704 149.6 15.2C149.216 15.68 148.688 16.056 148.016 16.328ZM164.857 20.36V23H152.473V20.912L159.145 14.576C159.897 13.856 160.401 13.232 160.657 12.704C160.929 12.16 161.065 11.624 161.065 11.096C161.065 10.312 160.801 9.712 160.273 9.296C159.745 8.88 158.969 8.672 157.945 8.672C156.233 8.672 154.921 9.256 154.009 10.424L151.825 8.744C152.481 7.864 153.361 7.184 154.465 6.704C155.585 6.208 156.833 5.96 158.209 5.96C160.033 5.96 161.489 6.392 162.577 7.256C163.665 8.12 164.209 9.296 164.209 10.784C164.209 11.696 164.017 12.552 163.633 13.352C163.249 14.152 162.513 15.064 161.425 16.088L156.937 20.36H164.857ZM181.282 19.184H178.306V23H175.282V19.184H166.066V17.024L174.346 6.2H177.682L169.882 16.544H175.378V13.16H178.306V16.544H181.282V19.184Z" fill="#3389B4"/>
<path d="M52.132 40.232V42.884H51.304V41H43.972L43.96 42.884H43.132L43.144 40.232H43.564C44.116 40.2 44.5 39.764 44.716 38.924C44.932 38.076 45.064 36.876 45.112 35.324L45.208 32.6H50.872V40.232H52.132ZM45.904 35.408C45.864 36.688 45.764 37.744 45.604 38.576C45.452 39.4 45.192 39.952 44.824 40.232H49.996V33.368H45.976L45.904 35.408ZM57.6273 41.072C56.7953 41.072 56.0393 40.888 55.3593 40.52C54.6873 40.144 54.1593 39.632 53.7753 38.984C53.3993 38.336 53.2113 37.608 53.2113 36.8C53.2113 35.992 53.3993 35.264 53.7753 34.616C54.1593 33.968 54.6873 33.46 55.3593 33.092C56.0393 32.716 56.7953 32.528 57.6273 32.528C58.4593 32.528 59.2073 32.712 59.8713 33.08C60.5433 33.448 61.0713 33.96 61.4553 34.616C61.8393 35.264 62.0313 35.992 62.0313 36.8C62.0313 37.608 61.8393 38.34 61.4553 38.996C61.0713 39.644 60.5433 40.152 59.8713 40.52C59.2073 40.888 58.4593 41.072 57.6273 41.072ZM57.6273 40.28C58.2913 40.28 58.8913 40.132 59.4273 39.836C59.9633 39.532 60.3833 39.116 60.6873 38.588C60.9913 38.052 61.1433 37.456 61.1433 36.8C61.1433 36.144 60.9913 35.552 60.6873 35.024C60.3833 34.488 59.9633 34.072 59.4273 33.776C58.8913 33.472 58.2913 33.32 57.6273 33.32C56.9633 33.32 56.3593 33.472 55.8153 33.776C55.2793 34.072 54.8553 34.488 54.5433 35.024C54.2393 35.552 54.0873 36.144 54.0873 36.8C54.0873 37.456 54.2393 38.052 54.5433 38.588C54.8553 39.116 55.2793 39.532 55.8153 39.836C56.3593 40.132 56.9633 40.28 57.6273 40.28ZM67.8224 41.072C66.9904 41.072 66.2384 40.888 65.5664 40.52C64.9024 40.152 64.3784 39.644 63.9944 38.996C63.6184 38.34 63.4304 37.608 63.4304 36.8C63.4304 35.992 63.6184 35.264 63.9944 34.616C64.3784 33.96 64.9064 33.448 65.5784 33.08C66.2504 32.712 67.0024 32.528 67.8344 32.528C68.4584 32.528 69.0344 32.632 69.5624 32.84C70.0904 33.048 70.5384 33.352 70.9064 33.752L70.3424 34.316C69.6864 33.652 68.8584 33.32 67.8584 33.32C67.1944 33.32 66.5904 33.472 66.0464 33.776C65.5024 34.08 65.0744 34.496 64.7624 35.024C64.4584 35.552 64.3064 36.144 64.3064 36.8C64.3064 37.456 64.4584 38.048 64.7624 38.576C65.0744 39.104 65.5024 39.52 66.0464 39.824C66.5904 40.128 67.1944 40.28 67.8584 40.28C68.8664 40.28 69.6944 39.944 70.3424 39.272L70.9064 39.836C70.5384 40.236 70.0864 40.544 69.5504 40.76C69.0224 40.968 68.4464 41.072 67.8224 41.072ZM78.1308 33.368H75.1788V41H74.3027V33.368H71.3508V32.6H78.1308V33.368ZM84.6436 38.756H79.9636L78.9556 41H78.0316L81.8716 32.6H82.7476L86.5876 41H85.6516L84.6436 38.756ZM84.3196 38.036L82.3036 33.524L80.2876 38.036H84.3196ZM93.1773 36.668C93.7613 36.788 94.2053 37.024 94.5093 37.376C94.8133 37.72 94.9653 38.172 94.9653 38.732C94.9653 39.46 94.7053 40.02 94.1853 40.412C93.6733 40.804 92.9173 41 91.9173 41H88.1973V32.6H91.6893C92.5853 32.6 93.2853 32.784 93.7893 33.152C94.2933 33.52 94.5453 34.052 94.5453 34.748C94.5453 35.22 94.4253 35.62 94.1853 35.948C93.9453 36.268 93.6093 36.508 93.1773 36.668ZM89.0733 36.404H91.6413C92.2893 36.404 92.7853 36.272 93.1293 36.008C93.4813 35.744 93.6573 35.36 93.6573 34.856C93.6573 34.352 93.4813 33.968 93.1293 33.704C92.7853 33.44 92.2893 33.308 91.6413 33.308H89.0733V36.404ZM91.9173 40.292C93.3653 40.292 94.0893 39.752 94.0893 38.672C94.0893 37.616 93.3653 37.088 91.9173 37.088H89.0733V40.292H91.9173ZM99.9695 37.148H98.0495V41H97.1855V32.6H98.0495V36.368H99.9695L102.814 32.6H103.774L100.654 36.68L103.954 41H102.934L99.9695 37.148ZM110.601 38.756H105.921L104.913 41H103.989L107.829 32.6H108.705L112.545 41H111.609L110.601 38.756ZM110.277 38.036L108.261 33.524L106.245 38.036H110.277ZM122.791 33.368H119.839V41H118.963V33.368H116.011V32.6H122.791V33.368ZM130.29 40.232V41H124.35V32.6H130.11V33.368H125.238V36.356H129.582V37.112H125.238V40.232H130.29ZM132.238 32.6L134.626 35.924L137.002 32.6H138.046L135.178 36.632L138.274 41H137.23L134.626 37.388L132.022 41H131.002L134.086 36.668L131.218 32.6H132.238ZM139.815 41.06C139.639 41.06 139.487 40.996 139.359 40.868C139.239 40.74 139.179 40.584 139.179 40.4C139.179 40.216 139.239 40.064 139.359 39.944C139.487 39.816 139.639 39.752 139.815 39.752C139.991 39.752 140.143 39.816 140.271 39.944C140.399 40.064 140.463 40.216 140.463 40.4C140.463 40.584 140.399 40.74 140.271 40.868C140.143 40.996 139.991 41.06 139.815 41.06ZM150.623 36.668C151.207 36.788 151.651 37.024 151.955 37.376C152.259 37.72 152.411 38.172 152.411 38.732C152.411 39.46 152.151 40.02 151.631 40.412C151.119 40.804 150.363 41 149.363 41H145.643V32.6H149.135C150.031 32.6 150.731 32.784 151.235 33.152C151.739 33.52 151.991 34.052 151.991 34.748C151.991 35.22 151.871 35.62 151.631 35.948C151.391 36.268 151.055 36.508 150.623 36.668ZM146.519 36.404H149.087C149.735 36.404 150.231 36.272 150.575 36.008C150.927 35.744 151.103 35.36 151.103 34.856C151.103 34.352 150.927 33.968 150.575 33.704C150.231 33.44 149.735 33.308 149.087 33.308H146.519V36.404ZM149.363 40.292C150.811 40.292 151.535 39.752 151.535 38.672C151.535 37.616 150.811 37.088 149.363 37.088H146.519V40.292H149.363ZM158.315 41.072C157.483 41.072 156.727 40.888 156.047 40.52C155.375 40.144 154.847 39.632 154.463 38.984C154.087 38.336 153.899 37.608 153.899 36.8C153.899 35.992 154.087 35.264 154.463 34.616C154.847 33.968 155.375 33.46 156.047 33.092C156.727 32.716 157.483 32.528 158.315 32.528C159.147 32.528 159.895 32.712 160.559 33.08C161.231 33.448 161.759 33.96 162.143 34.616C162.527 35.264 162.719 35.992 162.719 36.8C162.719 37.608 162.527 38.34 162.143 38.996C161.759 39.644 161.231 40.152 160.559 40.52C159.895 40.888 159.147 41.072 158.315 41.072ZM158.315 40.28C158.979 40.28 159.579 40.132 160.115 39.836C160.651 39.532 161.071 39.116 161.375 38.588C161.679 38.052 161.831 37.456 161.831 36.8C161.831 36.144 161.679 35.552 161.375 35.024C161.071 34.488 160.651 34.072 160.115 33.776C159.579 33.472 158.979 33.32 158.315 33.32C157.651 33.32 157.047 33.472 156.503 33.776C155.967 34.072 155.543 34.488 155.231 35.024C154.927 35.552 154.775 36.144 154.775 36.8C154.775 37.456 154.927 38.052 155.231 38.588C155.543 39.116 155.967 39.532 156.503 39.836C157.047 40.132 157.651 40.28 158.315 40.28ZM172.32 40.232V42.884H171.492V41H164.16L164.148 42.884H163.32L163.332 40.232H163.752C164.304 40.2 164.688 39.764 164.904 38.924C165.12 38.076 165.252 36.876 165.3 35.324L165.396 32.6H171.06V40.232H172.32ZM166.092 35.408C166.052 36.688 165.952 37.744 165.792 38.576C165.64 39.4 165.38 39.952 165.012 40.232H170.184V33.368H166.164L166.092 35.408ZM177.647 35.6C178.639 35.6 179.395 35.824 179.915 36.272C180.443 36.72 180.707 37.376 180.707 38.24C180.707 39.144 180.427 39.832 179.867 40.304C179.315 40.768 178.515 41 177.467 41H174.131V32.6H175.007V35.6H177.647ZM177.443 40.292C178.219 40.292 178.807 40.12 179.207 39.776C179.615 39.432 179.819 38.924 179.819 38.252C179.819 36.964 179.027 36.32 177.443 36.32H175.007V40.292H177.443ZM182.159 32.6H183.035V41H182.159V32.6Z" fill="#4F4F4F"/>
<path d="M23.1488 4.63284C23.6758 5.30081 26.9562 9.59065 24.1508 10.9563C23.4086 11.3199 22.5328 11.3199 21.7906 10.9563C18.9851 9.59065 22.2656 5.30081 22.7926 4.63284C22.8668 4.53635 23.0078 4.51409 23.1043 4.58831C23.1191 4.60315 23.134 4.61799 23.1488 4.63284Z" fill="#8BB3EB"/>
<path d="M18.4805 36.213C15.4746 36.213 12.6469 35.7454 10.5094 34.8993C8.24569 34.0012 6.99139 32.7544 6.99139 31.3962C6.99139 29.9044 8.4535 28.5759 11.118 27.6704C11.348 27.5887 11.6004 27.7149 11.682 27.945C11.7637 28.1751 11.6375 28.4274 11.4074 28.5091C9.20311 29.2661 7.88202 30.3423 7.88202 31.3962C7.88202 32.3536 8.95819 33.3333 10.8359 34.0755C12.8695 34.8844 15.5859 35.3223 18.4805 35.3223C21.375 35.3223 24.0914 34.877 26.125 34.0755C28.0027 33.3333 29.0789 32.3536 29.0789 31.3962C29.0789 30.4907 28.0992 29.5555 26.3996 28.8282C26.1695 28.7317 26.0656 28.4719 26.1621 28.2493C26.2586 28.0192 26.5183 27.9153 26.741 28.0118H26.7484C28.8266 28.895 29.9695 30.0973 29.9695 31.3962C29.9695 32.7618 28.7226 34.0012 26.4516 34.8993C24.3141 35.7528 21.4863 36.213 18.4805 36.213Z" fill="#333333"/>
<path d="M12.3871 39.9016C12.3574 39.9016 12.3352 39.9016 12.3055 39.8942C5.0543 38.5879 0.371094 35.352 0.371094 31.6485C0.371094 29.882 1.43242 28.1899 3.44375 26.75C5.33633 25.3992 7.97852 24.3231 11.1031 23.6403C11.3406 23.5883 11.5781 23.7367 11.6301 23.9817C11.682 24.2266 11.5336 24.4567 11.2887 24.5086C5.20273 25.8445 1.26172 28.65 1.26172 31.6485C1.26172 34.8473 5.7668 37.8086 12.4613 39.0184C12.7062 39.0629 12.8621 39.293 12.8176 39.5379C12.7879 39.7457 12.6023 39.9016 12.3871 39.9016Z" fill="#333333"/>
<path d="M34.2445 26.9578C32.5375 25.659 30.1105 24.5828 27.2383 23.8555C27.0008 23.7961 26.7558 23.9371 26.6965 24.182C26.6371 24.4195 26.7781 24.6645 27.023 24.7238C29.7766 25.4215 32.0922 26.4383 33.7101 27.6703C34.8234 28.5164 36.1519 29.8969 36.1519 31.6484C36.1519 34.7137 32.0996 37.534 25.8281 38.8477C25.6203 38.8922 25.4719 39.0703 25.4719 39.2856C25.4719 39.5305 25.6723 39.7309 25.9172 39.7309C25.9469 39.7309 25.9765 39.7309 26.0062 39.7234C29.2051 39.0555 31.9289 37.9793 33.8734 36.6137C35.9441 35.159 37.0426 33.4445 37.0426 31.6484C37.0351 29.9711 36.0703 28.3531 34.2445 26.9578Z" fill="#333333"/>
<path d="M19.4899 12.7375C20.9372 14.593 30.0067 26.4457 22.2657 30.2086C20.2024 31.2106 17.7977 31.2106 15.7418 30.2086C8.00083 26.4457 17.0704 14.593 18.5176 12.7375C18.577 12.6633 18.6512 12.6039 18.7403 12.5594C18.8219 12.5148 18.9184 12.4926 19.0075 12.4926C19.193 12.4926 19.3711 12.5891 19.4899 12.7375Z" fill="black"/>
<path d="M17.9609 30.2086C10.9769 26.8168 17.6714 16.8418 20.1132 13.5614C19.8461 13.2051 19.6308 12.9231 19.4898 12.745C19.3711 12.5891 19.1929 12.5 19 12.5C18.9035 12.5 18.8144 12.5223 18.7328 12.5668C18.6437 12.6114 18.5695 12.6707 18.5101 12.745C17.0628 14.6004 7.99332 26.4532 15.7343 30.216C17.0925 30.8766 18.6214 31.1067 20.1132 30.884C19.3636 30.7653 18.6437 30.5352 17.9609 30.2086Z" fill="#7597BF"/>
<path d="M19.6011 29.125C19.3562 29.125 19.1558 28.9246 19.1558 28.6797C19.1558 28.4347 19.3562 28.2343 19.6011 28.2343C21.2339 28.2343 22.5625 26.9058 22.5625 25.273C22.5625 25.0281 22.7629 24.8277 23.0078 24.8277C23.2527 24.8277 23.4531 25.0281 23.4531 25.273C23.4531 27.4031 21.7312 29.125 19.6011 29.125Z" fill="#F4F8FC"/>
</svg>
