<svg width="182" height="44" viewBox="0 0 182 44" fill="none" xmlns="http://www.w3.org/2000/svg">
<path d="M56.416 14.264C57.488 14.552 58.304 15.048 58.864 15.752C59.424 16.44 59.704 17.304 59.704 18.344C59.704 19.816 59.16 20.96 58.072 21.776C56.984 22.592 55.408 23 53.344 23H45.376V6.2H52.888C54.776 6.2 56.248 6.576 57.304 7.328C58.36 8.08 58.888 9.144 58.888 10.52C58.888 11.4 58.672 12.16 58.24 12.8C57.824 13.44 57.216 13.928 56.416 14.264ZM48.448 13.376H52.624C53.632 13.376 54.4 13.176 54.928 12.776C55.456 12.376 55.72 11.784 55.72 11C55.72 10.216 55.456 9.624 54.928 9.224C54.4 8.808 53.632 8.6 52.624 8.6H48.448V13.376ZM53.248 20.6C55.456 20.6 56.56 19.768 56.56 18.104C56.56 16.472 55.456 15.656 53.248 15.656H48.448V20.6H53.248ZM68.6343 23.168C67.3383 23.168 66.1703 22.888 65.1303 22.328C64.0903 21.768 63.2743 20.992 62.6823 20C62.1063 18.992 61.8183 17.856 61.8183 16.592C61.8183 15.328 62.1063 14.2 62.6823 13.208C63.2743 12.216 64.0903 11.44 65.1303 10.88C66.1703 10.32 67.3383 10.04 68.6343 10.04C69.9463 10.04 71.1223 10.32 72.1623 10.88C73.2023 11.44 74.0103 12.216 74.5863 13.208C75.1783 14.2 75.4743 15.328 75.4743 16.592C75.4743 17.856 75.1783 18.992 74.5863 20C74.0103 20.992 73.2023 21.768 72.1623 22.328C71.1223 22.888 69.9463 23.168 68.6343 23.168ZM68.6343 20.6C69.7383 20.6 70.6503 20.232 71.3703 19.496C72.0903 18.76 72.4503 17.792 72.4503 16.592C72.4503 15.392 72.0903 14.424 71.3703 13.688C70.6503 12.952 69.7383 12.584 68.6343 12.584C67.5303 12.584 66.6183 12.952 65.8983 13.688C65.1943 14.424 64.8423 15.392 64.8423 16.592C64.8423 17.792 65.1943 18.76 65.8983 19.496C66.6183 20.232 67.5303 20.6 68.6343 20.6ZM91.9773 20.456V25.856H89.1693V23H79.2812V25.856H76.4973V20.456H77.0973C77.9133 20.424 78.4653 19.904 78.7533 18.896C79.0573 17.872 79.2573 16.432 79.3533 14.576L79.5213 10.184H90.0813V20.456H91.9773ZM82.0893 14.792C82.0253 16.264 81.9053 17.464 81.7293 18.392C81.5533 19.32 81.2333 20.008 80.7693 20.456H87.0813V12.728H82.1613L82.0893 14.792ZM100.369 23.168C99.0726 23.168 97.9046 22.888 96.8646 22.328C95.8246 21.768 95.0086 20.992 94.4166 20C93.8406 18.992 93.5526 17.856 93.5526 16.592C93.5526 15.328 93.8406 14.2 94.4166 13.208C95.0086 12.216 95.8246 11.44 96.8646 10.88C97.9046 10.32 99.0726 10.04 100.369 10.04C101.681 10.04 102.857 10.32 103.897 10.88C104.937 11.44 105.745 12.216 106.321 13.208C106.913 14.2 107.209 15.328 107.209 16.592C107.209 17.856 106.913 18.992 106.321 20C105.745 20.992 104.937 21.768 103.897 22.328C102.857 22.888 101.681 23.168 100.369 23.168ZM100.369 20.6C101.473 20.6 102.385 20.232 103.105 19.496C103.825 18.76 104.185 17.792 104.185 16.592C104.185 15.392 103.825 14.424 103.105 13.688C102.385 12.952 101.473 12.584 100.369 12.584C99.2646 12.584 98.3526 12.952 97.6326 13.688C96.9286 14.424 96.5766 15.392 96.5766 16.592C96.5766 17.792 96.9286 18.76 97.6326 19.496C98.3526 20.232 99.2646 20.6 100.369 20.6ZM119.46 16.328C121.044 16.808 121.836 17.832 121.836 19.4C121.836 20.552 121.404 21.44 120.54 22.064C119.676 22.688 118.396 23 116.7 23H110.172V10.184H116.436C118.004 10.184 119.228 10.472 120.108 11.048C120.988 11.624 121.428 12.44 121.428 13.496C121.428 14.152 121.252 14.72 120.9 15.2C120.564 15.68 120.084 16.056 119.46 16.328ZM113.028 15.536H116.172C117.724 15.536 118.5 15 118.5 13.928C118.5 12.888 117.724 12.368 116.172 12.368H113.028V15.536ZM116.46 20.816C118.108 20.816 118.932 20.28 118.932 19.208C118.932 18.648 118.74 18.232 118.356 17.96C117.972 17.672 117.372 17.528 116.556 17.528H113.028V20.816H116.46ZM130.744 23.168C129.448 23.168 128.28 22.888 127.24 22.328C126.2 21.768 125.384 20.992 124.792 20C124.216 18.992 123.928 17.856 123.928 16.592C123.928 15.328 124.216 14.2 124.792 13.208C125.384 12.216 126.2 11.44 127.24 10.88C128.28 10.32 129.448 10.04 130.744 10.04C132.056 10.04 133.232 10.32 134.272 10.88C135.312 11.44 136.12 12.216 136.696 13.208C137.288 14.2 137.584 15.328 137.584 16.592C137.584 17.856 137.288 18.992 136.696 20C136.12 20.992 135.312 21.768 134.272 22.328C133.232 22.888 132.056 23.168 130.744 23.168ZM130.744 20.6C131.848 20.6 132.76 20.232 133.48 19.496C134.2 18.76 134.56 17.792 134.56 16.592C134.56 15.392 134.2 14.424 133.48 13.688C132.76 12.952 131.848 12.584 130.744 12.584C129.64 12.584 128.728 12.952 128.008 13.688C127.304 14.424 126.952 15.392 126.952 16.592C126.952 17.792 127.304 18.76 128.008 19.496C128.728 20.232 129.64 20.6 130.744 20.6ZM148.016 16.328C148.816 16.552 149.432 16.92 149.864 17.432C150.312 17.928 150.536 18.528 150.536 19.232C150.536 20.016 150.272 20.712 149.744 21.32C149.216 21.912 148.488 22.376 147.56 22.712C146.632 23.048 145.576 23.216 144.392 23.216C143.4 23.216 142.432 23.104 141.488 22.88C140.544 22.64 139.688 22.304 138.92 21.872L139.784 19.64C140.408 19.992 141.112 20.264 141.896 20.456C142.68 20.648 143.464 20.744 144.248 20.744C145.256 20.744 146.04 20.592 146.6 20.288C147.176 19.968 147.464 19.536 147.464 18.992C147.464 18.496 147.24 18.112 146.792 17.84C146.36 17.568 145.744 17.432 144.944 17.432H142.448V15.416H144.704C145.456 15.416 146.04 15.288 146.456 15.032C146.888 14.776 147.104 14.416 147.104 13.952C147.104 13.488 146.848 13.12 146.336 12.848C145.824 12.576 145.12 12.44 144.224 12.44C142.944 12.44 141.592 12.752 140.168 13.376L139.4 11.168C141.08 10.384 142.776 9.992 144.488 9.992C145.576 9.992 146.552 10.144 147.416 10.448C148.28 10.736 148.952 11.152 149.432 11.696C149.928 12.224 150.176 12.832 150.176 13.52C150.176 14.144 149.984 14.704 149.6 15.2C149.216 15.68 148.688 16.056 148.016 16.328ZM164.857 20.36V23H152.473V20.912L159.145 14.576C159.897 13.856 160.401 13.232 160.657 12.704C160.929 12.16 161.065 11.624 161.065 11.096C161.065 10.312 160.801 9.712 160.273 9.296C159.745 8.88 158.969 8.672 157.945 8.672C156.233 8.672 154.921 9.256 154.009 10.424L151.825 8.744C152.481 7.864 153.361 7.184 154.465 6.704C155.585 6.208 156.833 5.96 158.209 5.96C160.033 5.96 161.489 6.392 162.577 7.256C163.665 8.12 164.209 9.296 164.209 10.784C164.209 11.696 164.017 12.552 163.633 13.352C163.249 14.152 162.513 15.064 161.425 16.088L156.937 20.36H164.857ZM181.282 19.184H178.306V23H175.282V19.184H166.066V17.024L174.346 6.2H177.682L169.882 16.544H175.378V13.16H178.306V16.544H181.282V19.184Z" fill="white"/>
<path d="M52.132 40.232V42.884H51.304V41H43.972L43.96 42.884H43.132L43.144 40.232H43.564C44.116 40.2 44.5 39.764 44.716 38.924C44.932 38.076 45.064 36.876 45.112 35.324L45.208 32.6H50.872V40.232H52.132ZM45.904 35.408C45.864 36.688 45.764 37.744 45.604 38.576C45.452 39.4 45.192 39.952 44.824 40.232H49.996V33.368H45.976L45.904 35.408ZM57.6273 41.072C56.7953 41.072 56.0393 40.888 55.3593 40.52C54.6873 40.144 54.1593 39.632 53.7753 38.984C53.3993 38.336 53.2113 37.608 53.2113 36.8C53.2113 35.992 53.3993 35.264 53.7753 34.616C54.1593 33.968 54.6873 33.46 55.3593 33.092C56.0393 32.716 56.7953 32.528 57.6273 32.528C58.4593 32.528 59.2073 32.712 59.8713 33.08C60.5433 33.448 61.0713 33.96 61.4553 34.616C61.8393 35.264 62.0313 35.992 62.0313 36.8C62.0313 37.608 61.8393 38.34 61.4553 38.996C61.0713 39.644 60.5433 40.152 59.8713 40.52C59.2073 40.888 58.4593 41.072 57.6273 41.072ZM57.6273 40.28C58.2913 40.28 58.8913 40.132 59.4273 39.836C59.9633 39.532 60.3833 39.116 60.6873 38.588C60.9913 38.052 61.1433 37.456 61.1433 36.8C61.1433 36.144 60.9913 35.552 60.6873 35.024C60.3833 34.488 59.9633 34.072 59.4273 33.776C58.8913 33.472 58.2913 33.32 57.6273 33.32C56.9633 33.32 56.3593 33.472 55.8153 33.776C55.2793 34.072 54.8553 34.488 54.5433 35.024C54.2393 35.552 54.0873 36.144 54.0873 36.8C54.0873 37.456 54.2393 38.052 54.5433 38.588C54.8553 39.116 55.2793 39.532 55.8153 39.836C56.3593 40.132 56.9633 40.28 57.6273 40.28ZM67.8224 41.072C66.9904 41.072 66.2384 40.888 65.5664 40.52C64.9024 40.152 64.3784 39.644 63.9944 38.996C63.6184 38.34 63.4304 37.608 63.4304 36.8C63.4304 35.992 63.6184 35.264 63.9944 34.616C64.3784 33.96 64.9064 33.448 65.5784 33.08C66.2504 32.712 67.0024 32.528 67.8344 32.528C68.4584 32.528 69.0344 32.632 69.5624 32.84C70.0904 33.048 70.5384 33.352 70.9064 33.752L70.3424 34.316C69.6864 33.652 68.8584 33.32 67.8584 33.32C67.1944 33.32 66.5904 33.472 66.0464 33.776C65.5024 34.08 65.0744 34.496 64.7624 35.024C64.4584 35.552 64.3064 36.144 64.3064 36.8C64.3064 37.456 64.4584 38.048 64.7624 38.576C65.0744 39.104 65.5024 39.52 66.0464 39.824C66.5904 40.128 67.1944 40.28 67.8584 40.28C68.8664 40.28 69.6944 39.944 70.3424 39.272L70.9064 39.836C70.5384 40.236 70.0864 40.544 69.5504 40.76C69.0224 40.968 68.4464 41.072 67.8224 41.072ZM78.1308 33.368H75.1788V41H74.3027V33.368H71.3508V32.6H78.1308V33.368ZM84.6436 38.756H79.9636L78.9556 41H78.0316L81.8716 32.6H82.7476L86.5876 41H85.6516L84.6436 38.756ZM84.3196 38.036L82.3036 33.524L80.2876 38.036H84.3196ZM93.1773 36.668C93.7613 36.788 94.2053 37.024 94.5093 37.376C94.8133 37.72 94.9653 38.172 94.9653 38.732C94.9653 39.46 94.7053 40.02 94.1853 40.412C93.6733 40.804 92.9173 41 91.9173 41H88.1973V32.6H91.6893C92.5853 32.6 93.2853 32.784 93.7893 33.152C94.2933 33.52 94.5453 34.052 94.5453 34.748C94.5453 35.22 94.4253 35.62 94.1853 35.948C93.9453 36.268 93.6093 36.508 93.1773 36.668ZM89.0733 36.404H91.6413C92.2893 36.404 92.7853 36.272 93.1293 36.008C93.4813 35.744 93.6573 35.36 93.6573 34.856C93.6573 34.352 93.4813 33.968 93.1293 33.704C92.7853 33.44 92.2893 33.308 91.6413 33.308H89.0733V36.404ZM91.9173 40.292C93.3653 40.292 94.0893 39.752 94.0893 38.672C94.0893 37.616 93.3653 37.088 91.9173 37.088H89.0733V40.292H91.9173ZM99.9695 37.148H98.0495V41H97.1855V32.6H98.0495V36.368H99.9695L102.814 32.6H103.774L100.654 36.68L103.954 41H102.934L99.9695 37.148ZM110.601 38.756H105.921L104.913 41H103.989L107.829 32.6H108.705L112.545 41H111.609L110.601 38.756ZM110.277 38.036L108.261 33.524L106.245 38.036H110.277ZM122.791 33.368H119.839V41H118.963V33.368H116.011V32.6H122.791V33.368ZM130.29 40.232V41H124.35V32.6H130.11V33.368H125.238V36.356H129.582V37.112H125.238V40.232H130.29ZM132.238 32.6L134.626 35.924L137.002 32.6H138.046L135.178 36.632L138.274 41H137.23L134.626 37.388L132.022 41H131.002L134.086 36.668L131.218 32.6H132.238ZM148.08 36.668C148.664 36.788 149.108 37.024 149.412 37.376C149.716 37.72 149.868 38.172 149.868 38.732C149.868 39.46 149.608 40.02 149.088 40.412C148.576 40.804 147.82 41 146.82 41H143.1V32.6H146.592C147.488 32.6 148.188 32.784 148.692 33.152C149.196 33.52 149.448 34.052 149.448 34.748C149.448 35.22 149.328 35.62 149.088 35.948C148.848 36.268 148.512 36.508 148.08 36.668ZM143.976 36.404H146.544C147.192 36.404 147.688 36.272 148.032 36.008C148.384 35.744 148.56 35.36 148.56 34.856C148.56 34.352 148.384 33.968 148.032 33.704C147.688 33.44 147.192 33.308 146.544 33.308H143.976V36.404ZM146.82 40.292C148.268 40.292 148.992 39.752 148.992 38.672C148.992 37.616 148.268 37.088 146.82 37.088H143.976V40.292H146.82ZM155.772 41.072C154.94 41.072 154.184 40.888 153.504 40.52C152.832 40.144 152.304 39.632 151.92 38.984C151.544 38.336 151.356 37.608 151.356 36.8C151.356 35.992 151.544 35.264 151.92 34.616C152.304 33.968 152.832 33.46 153.504 33.092C154.184 32.716 154.94 32.528 155.772 32.528C156.604 32.528 157.352 32.712 158.016 33.08C158.688 33.448 159.216 33.96 159.6 34.616C159.984 35.264 160.176 35.992 160.176 36.8C160.176 37.608 159.984 38.34 159.6 38.996C159.216 39.644 158.688 40.152 158.016 40.52C157.352 40.888 156.604 41.072 155.772 41.072ZM155.772 40.28C156.436 40.28 157.036 40.132 157.572 39.836C158.108 39.532 158.528 39.116 158.832 38.588C159.136 38.052 159.288 37.456 159.288 36.8C159.288 36.144 159.136 35.552 158.832 35.024C158.528 34.488 158.108 34.072 157.572 33.776C157.036 33.472 156.436 33.32 155.772 33.32C155.108 33.32 154.504 33.472 153.96 33.776C153.424 34.072 153 34.488 152.688 35.024C152.384 35.552 152.232 36.144 152.232 36.8C152.232 37.456 152.384 38.052 152.688 38.588C153 39.116 153.424 39.532 153.96 39.836C154.504 40.132 155.108 40.28 155.772 40.28ZM169.777 40.232V42.884H168.949V41H161.617L161.605 42.884H160.777L160.789 40.232H161.209C161.761 40.2 162.145 39.764 162.361 38.924C162.577 38.076 162.709 36.876 162.757 35.324L162.853 32.6H168.517V40.232H169.777ZM163.549 35.408C163.509 36.688 163.409 37.744 163.249 38.576C163.097 39.4 162.837 39.952 162.469 40.232H167.641V33.368H163.621L163.549 35.408ZM175.104 35.6C176.096 35.6 176.852 35.824 177.372 36.272C177.9 36.72 178.164 37.376 178.164 38.24C178.164 39.144 177.884 39.832 177.324 40.304C176.772 40.768 175.972 41 174.924 41H171.588V32.6H172.464V35.6H175.104ZM174.9 40.292C175.676 40.292 176.264 40.12 176.664 39.776C177.072 39.432 177.276 38.924 177.276 38.252C177.276 36.964 176.484 36.32 174.9 36.32H172.464V40.292H174.9ZM179.616 32.6H180.492V41H179.616V32.6Z" fill="#E0E0E0"/>
<path d="M23.1488 1.63265C23.6758 2.30062 26.9562 6.59047 24.1508 7.95609C23.4086 8.31976 22.5328 8.31976 21.7906 7.95609C18.9851 6.59047 22.2656 2.30062 22.7926 1.63265C22.8668 1.53617 23.0078 1.5139 23.1043 1.58812C23.1191 1.60297 23.134 1.61781 23.1488 1.63265Z" fill="white"/>
<path d="M18.4805 33.213C15.4746 33.213 12.6469 32.7454 10.5094 31.8993C8.24569 31.0013 6.99139 29.7544 6.99139 28.3962C6.99139 26.9044 8.4535 25.5759 11.118 24.6704C11.348 24.5888 11.6004 24.7149 11.682 24.945C11.7637 25.1751 11.6375 25.4274 11.4074 25.5091C9.20311 26.2661 7.88202 27.3423 7.88202 28.3962C7.88202 29.3536 8.95819 30.3333 10.8359 31.0755C12.8695 31.8845 15.5859 32.3224 18.4805 32.3224C21.375 32.3224 24.0914 31.8771 26.125 31.0755C28.0027 30.3333 29.0789 29.3536 29.0789 28.3962C29.0789 27.4907 28.0992 26.5556 26.3996 25.8282C26.1695 25.7317 26.0656 25.472 26.1621 25.2493C26.2586 25.0192 26.5183 24.9153 26.741 25.0118H26.7484C28.8266 25.895 29.9695 27.0974 29.9695 28.3962C29.9695 29.7618 28.7226 31.0013 26.4516 31.8993C24.3141 32.7528 21.4863 33.213 18.4805 33.213Z" fill="#E0E0E0"/>
<path d="M12.3871 36.9015C12.3574 36.9015 12.3352 36.9015 12.3055 36.8941C5.0543 35.5879 0.371094 32.3519 0.371094 28.6484C0.371094 26.882 1.43242 25.1898 3.44375 23.75C5.33633 22.3992 7.97852 21.323 11.1031 20.6402C11.3406 20.5883 11.5781 20.7367 11.6301 20.9816C11.682 21.2266 11.5336 21.4566 11.2887 21.5086C5.20273 22.8445 1.26172 25.65 1.26172 28.6484C1.26172 31.8472 5.7668 34.8086 12.4613 36.0183C12.7062 36.0629 12.8621 36.2929 12.8176 36.5379C12.7879 36.7457 12.6023 36.9015 12.3871 36.9015Z" fill="#E0E0E0"/>
<path d="M34.2445 23.9577C32.5375 22.6588 30.1105 21.5827 27.2383 20.8553C27.0008 20.7959 26.7558 20.937 26.6965 21.1819C26.6371 21.4194 26.7781 21.6643 27.023 21.7237C29.7766 22.4213 32.0922 23.4381 33.7101 24.6702C34.8234 25.5163 36.1519 26.8967 36.1519 28.6483C36.1519 31.7135 32.0996 34.5338 25.8281 35.8475C25.6203 35.892 25.4719 36.0702 25.4719 36.2854C25.4719 36.5303 25.6723 36.7307 25.9172 36.7307C25.9469 36.7307 25.9765 36.7307 26.0062 36.7233C29.2051 36.0553 31.9289 34.9792 33.8734 33.6135C35.9441 32.1588 37.0426 30.4444 37.0426 28.6483C37.0351 26.9709 36.0703 25.353 34.2445 23.9577Z" fill="#E0E0E0"/>
<path d="M19.4899 9.7376C20.9372 11.5931 30.0067 23.4458 22.2657 27.2087C20.2024 28.2106 17.7977 28.2106 15.7418 27.2087C8.00083 23.4458 17.0704 11.5931 18.5176 9.7376C18.577 9.66338 18.6512 9.604 18.7403 9.55947C18.8219 9.51494 18.9184 9.49268 19.0075 9.49268C19.193 9.49268 19.3711 9.58916 19.4899 9.7376Z" fill="white"/>
<path d="M17.9609 27.2086C10.9769 23.8168 17.6714 13.8418 20.1132 10.5613C19.8461 10.2051 19.6308 9.92305 19.4898 9.74492C19.3711 9.58906 19.1929 9.5 19 9.5C18.9035 9.5 18.8144 9.52227 18.7328 9.5668C18.6437 9.61133 18.5695 9.6707 18.5101 9.74492C17.0628 11.6004 7.99332 23.4531 15.7343 27.216C17.0925 27.8766 18.6214 28.1066 20.1132 27.884C19.3636 27.7652 18.6437 27.5352 17.9609 27.2086Z" fill="#7597BF"/>
<path d="M19.6011 26.1249C19.3562 26.1249 19.1558 25.9245 19.1558 25.6796C19.1558 25.4347 19.3562 25.2343 19.6011 25.2343C21.2339 25.2343 22.5625 23.9058 22.5625 22.2729C22.5625 22.028 22.7629 21.8276 23.0078 21.8276C23.2527 21.8276 23.4531 22.028 23.4531 22.2729C23.4531 24.403 21.7312 26.1249 19.6011 26.1249Z" fill="#F4F8FC"/>
</svg>
