<svg width="17" height="13" viewBox="0 0 17 13" fill="none" xmlns="http://www.w3.org/2000/svg">
<path d="M13.8745 5.67204C13.8745 5.67204 14.0988 6.73075 14.149 6.95273H13.1632C13.2606 6.69944 13.6354 5.71473 13.6354 5.71473C13.6295 5.72327 13.7328 5.45575 13.7918 5.29068L13.8745 5.67204ZM17 1.36607V11.3839C17 12.1381 16.3655 12.75 15.5833 12.75H1.41667C0.634549 12.75 0 12.1381 0 11.3839V1.36607C0 0.611886 0.634549 0 1.41667 0H15.5833C16.3655 0 17 0.611886 17 1.36607ZM4.50087 8.51518L6.36615 4.09821H5.11181L3.95191 7.11496L3.825 6.50307L3.41181 4.47104C3.34392 4.18929 3.13437 4.1096 2.87465 4.09821H0.965104L0.944444 4.18644C1.41076 4.30028 1.82691 4.46535 2.18993 4.6731L3.24653 8.51518H4.50087ZM7.28698 8.52087L8.03073 4.09821H6.84427L6.10347 8.52087H7.28698ZM11.416 7.07511C11.4219 6.57137 11.1031 6.18717 10.4214 5.87126C10.0052 5.6692 9.75139 5.53259 9.75139 5.32483C9.75729 5.137 9.96684 4.94347 10.4332 4.94347C10.8198 4.93493 11.1031 5.02316 11.3156 5.11138L11.4219 5.15977L11.5842 4.20352C11.351 4.11529 10.9792 4.01568 10.5217 4.01568C9.35 4.01568 8.52656 4.61903 8.52066 5.47852C8.51181 6.11317 9.11094 6.46607 9.55955 6.67952C10.017 6.89581 10.1734 7.03811 10.1734 7.22879C10.1675 7.52478 9.80156 7.66138 9.46215 7.66138C8.98993 7.66138 8.73611 7.59023 8.34948 7.42517L8.19306 7.35402L8.02778 8.34727C8.30521 8.46964 8.81875 8.57779 9.35 8.58348C10.5955 8.58633 11.4071 7.99152 11.416 7.07511ZM15.5833 8.52087L14.6271 4.09821H13.7092C13.4259 4.09821 13.2104 4.1779 13.0894 4.46535L11.3274 8.52087H12.5729C12.5729 8.52087 12.7766 7.97444 12.8208 7.85776H14.3438C14.3792 8.01429 14.4854 8.52087 14.4854 8.52087H15.5833Z" fill="white"/>
</svg>
