
<svg>
<!-- Геолокация значок -->
<symbol id="geoloc" viewBox="0 0 13 14" xmlns="http://www.w3.org/2000/svg">
<g><g clip-path="url(#clip0_97:84)">
<path d="M6.50011 12.4446C5.98493 11.7897 5.17657 10.7237 4.426 9.57335C3.93242 8.81688 3.47051 8.03401 3.13371 7.31421C2.79015 6.57995 2.60476 5.9688 2.60476 5.53774C2.60476 3.38959 4.35262 1.64151 6.50022 1.64151C8.64735 1.64151 10.3953 3.38951 10.3957 5.53774L6.50011 12.4446ZM6.50011 12.4446C7.01527 11.7895 7.82367 10.7235 8.5743 9.57305C9.0679 8.81657 9.52985 8.03372 9.86668 7.31396C10.2103 6.57979 10.3956 5.96876 10.3957 5.53782L6.50011 12.4446Z"/>
<path d="M5.16848 5.53763C5.16848 4.80322 5.76647 4.20538 6.50035 4.20538C7.23423 4.20538 7.83221 4.80322 7.83221 5.53763C7.83221 6.27204 7.23423 6.86988 6.50035 6.86988C5.76647 6.86988 5.16848 6.27204 5.16848 5.53763Z"/>
</g>
<defs>
<clipPath id="clip0_97:84">
<rect width="13" height="13" fill="white" transform="translate(0 0.75)"/>
</clipPath>
</defs>
</symbol>

</svg>