<svg width="50" height="50" viewBox="0 0 50 50" fill="none" xmlns="http://www.w3.org/2000/svg">
<circle cx="25" cy="25" r="20" fill="#CEE8EF"/>
<path d="M36.0338 0.532959H13.9662C11.9743 0.532959 10.3538 2.15347 10.3538 4.14536V45.8545C10.3538 47.8464 11.9743 49.4669 13.9662 49.4669H36.0338C38.0256 49.4669 39.6461 47.8464 39.6461 45.8545V43.2206C39.6461 42.8161 39.3183 42.4881 38.9137 42.4881H11.8187V4.14536C11.8187 2.96118 12.782 1.9978 13.9662 1.9978H15.6791V4.21802C15.6791 6.20991 17.2996 7.83042 19.2915 7.83042H30.7087C32.7005 7.83042 34.321 6.20991 34.321 4.21802V1.9978H36.0339C37.218 1.9978 38.1814 2.96118 38.1814 4.14536V39.6364C38.1814 40.0409 38.5092 40.3688 38.9138 40.3688C39.3184 40.3688 39.6462 40.0409 39.6462 39.6364V4.14536C39.6462 2.15347 38.0257 0.532959 36.0338 0.532959ZM38.1814 43.953V45.8545C38.1814 47.0387 37.218 48.0021 36.0339 48.0021H13.9662C12.782 48.0021 11.8187 47.0387 11.8187 45.8545V43.953H38.1814ZM32.8561 4.21812C32.8561 5.4022 31.8927 6.36567 30.7086 6.36567H19.2914C18.1073 6.36567 17.1439 5.4023 17.1439 4.21812V1.9978H32.8561V4.21812Z" fill="black"/>
<path d="M23.1038 4.7677H26.8961C27.3007 4.7677 27.6285 4.43977 27.6285 4.03528C27.6285 3.63079 27.3007 3.30286 26.8961 3.30286H23.1038C22.6993 3.30286 22.3714 3.63079 22.3714 4.03528C22.3714 4.43977 22.6993 4.7677 23.1038 4.7677Z" fill="black"/>
<path d="M18.5491 33.7242H17.0671C16.1033 33.7242 15.3192 34.5083 15.3192 35.4721V36.9541C15.3192 37.9179 16.1033 38.702 17.0671 38.702H18.5491C19.5129 38.702 20.2969 37.9179 20.2969 36.9541V35.4721C20.297 34.5083 19.5129 33.7242 18.5491 33.7242ZM18.8322 36.9541C18.8322 37.1102 18.7052 37.2371 18.5492 37.2371H17.0672C16.9111 37.2371 16.7842 37.1102 16.7842 36.9541V35.4721C16.7842 35.316 16.9111 35.1891 17.0672 35.1891H18.5492C18.7052 35.1891 18.8322 35.316 18.8322 35.4721V36.9541Z" fill="black"/>
<path d="M22.9841 36.9456H34.1745C34.5791 36.9456 34.9069 36.6176 34.9069 36.2131C34.9069 35.8086 34.5791 35.4807 34.1745 35.4807H22.9841C22.5796 35.4807 22.2517 35.8086 22.2517 36.2131C22.2517 36.6176 22.5796 36.9456 22.9841 36.9456Z" fill="black"/>
<g clip-path="url(#clip0_14:73)">
<path d="M26.8086 13.9168C26.243 13.2569 25.734 12.6725 25.3381 12.1823C25.3192 12.1446 25.2815 12.1257 25.2626 12.1069C25.0553 11.9372 24.7536 11.9749 24.5839 12.1823C24.188 12.6725 23.679 13.2569 23.1134 13.9168C20.6247 16.8014 17.1745 20.7983 17.1745 24.1354C17.1745 26.2847 18.0418 28.2266 19.4558 29.6406C20.8698 31.0358 22.8117 31.9219 24.961 31.9219C27.1103 31.9219 29.0522 31.0546 30.4662 29.6406C31.8802 28.2266 32.7475 26.2847 32.7475 24.1354C32.7475 20.7983 29.2973 16.8014 26.8086 13.9168ZM29.7875 28.943C28.5432 30.1874 26.8463 30.9604 24.961 30.9604C23.0756 30.9604 21.3788 30.1874 20.1345 28.9619C18.909 27.7364 18.136 26.0207 18.136 24.1354C18.136 21.1565 21.4542 17.3104 23.8486 14.539C24.2446 14.0676 24.6216 13.634 24.961 13.2192C25.3004 13.634 25.6774 14.0676 26.0733 14.5201C28.4677 17.2916 31.786 21.1188 31.786 24.1165C31.786 26.0019 31.013 27.6987 29.7875 28.943Z" fill="black"/>
<path d="M24.9987 28.4905C23.8298 28.4905 22.774 28.0191 22.0198 27.265C21.2657 26.5109 20.7944 25.4551 20.7944 24.2862C20.7944 24.0222 20.587 23.8148 20.323 23.8148C20.0591 23.8148 19.8517 24.0222 19.8517 24.2862C19.8517 25.719 20.4361 27.0011 21.36 27.9437C22.2649 28.8487 23.5658 29.4332 24.9987 29.4332C25.2626 29.4332 25.47 29.2258 25.47 28.9618C25.47 28.6979 25.2626 28.4905 24.9987 28.4905Z" fill="black"/>
</g>
<defs>
<clipPath id="clip0_14:73">
<rect width="19.9219" height="19.9219" fill="white" transform="translate(15 12)"/>
</clipPath>
</defs>
</svg>
