<svg width="50" height="50" viewBox="0 0 50 50" fill="none" xmlns="http://www.w3.org/2000/svg">
<g clip-path="url(#clip0_865:118)">
<circle cx="31" cy="20" r="20" fill="#CEE8EF"/>
<path d="M39.5895 30.8599C38.2514 30.8599 37.1628 31.944 37.1628 33.2765C37.1628 34.609 38.2514 35.693 39.5895 35.693C40.9275 35.693 42.0161 34.6089 42.0161 33.2765C42.0162 31.944 40.9275 30.8599 39.5895 30.8599ZM39.5895 34.2282C39.0591 34.2282 38.6276 33.8012 38.6276 33.2765C38.6276 32.7517 39.0591 32.3247 39.5895 32.3247C40.1198 32.3247 40.5513 32.7517 40.5513 33.2765C40.5514 33.8012 40.1198 34.2282 39.5895 34.2282Z" fill="black"/>
<path d="M37.989 25.5194H38.8223C39.2268 25.5194 39.5547 25.1915 39.5547 24.787C39.5547 24.3825 39.2268 24.0546 38.8223 24.0546H37.989C37.5845 24.0546 37.2565 24.3825 37.2565 24.787C37.2565 25.1915 37.5845 25.5194 37.989 25.5194Z" fill="black"/>
<path d="M8.10511 30.8599C6.76703 30.8599 5.67845 31.944 5.67845 33.2765C5.67845 34.609 6.76703 35.693 8.10511 35.693C9.4432 35.693 10.5318 34.6089 10.5318 33.2765C10.5318 31.944 9.4431 30.8599 8.10511 30.8599ZM8.10511 34.2282C7.57474 34.2282 7.1433 33.8012 7.1433 33.2765C7.1433 32.7517 7.57474 32.3247 8.10511 32.3247C8.63549 32.3247 9.06693 32.7517 9.06693 33.2765C9.06693 33.8012 8.63539 34.2282 8.10511 34.2282Z" fill="black"/>
<path d="M21.2406 30.8599C19.9025 30.8599 18.814 31.944 18.814 33.2765C18.814 34.609 19.9025 35.693 21.2406 35.693C22.5787 35.693 23.6673 34.6089 23.6673 33.2765C23.6674 31.944 22.5787 30.8599 21.2406 30.8599ZM21.2406 34.2282C20.7103 34.2282 20.2788 33.8012 20.2788 33.2765C20.2788 32.7517 20.7103 32.3247 21.2406 32.3247C21.771 32.3247 22.2024 32.7517 22.2024 33.2765C22.2025 33.8012 21.771 34.2282 21.2406 34.2282Z" fill="black"/>
<path d="M11.7554 18.0762C11.4023 18.0763 11.0742 18.2515 10.8777 18.545C9.50506 20.5951 8.80907 22.0663 8.80907 22.9177C8.80907 24.5423 10.1308 25.864 11.7555 25.864C13.3801 25.864 14.7018 24.5423 14.7018 22.9177C14.7018 22.0662 14.0059 20.595 12.6332 18.5449C12.4365 18.2515 12.1084 18.0762 11.7554 18.0762ZM13.2369 22.9178C13.2369 23.7347 12.5722 24.3993 11.7554 24.3993C10.9385 24.3993 10.2738 23.7347 10.2738 22.9178C10.2738 22.5402 10.7351 21.4706 11.7554 19.878C12.7756 21.4706 13.2369 22.5402 13.2369 22.9178Z" fill="black"/>
<path d="M25.0359 18.1194H21.2407C20.8362 18.1194 20.5083 18.4473 20.5083 18.8518C20.5083 19.2563 20.8362 19.5842 21.2407 19.5842H25.0359C25.4404 19.5842 25.7684 19.2563 25.7684 18.8518C25.7684 18.4473 25.4404 18.1194 25.0359 18.1194Z" fill="black"/>
<path d="M25.0359 21.2377H21.2407C20.8362 21.2377 20.5083 21.5656 20.5083 21.9701C20.5083 22.3746 20.8362 22.7025 21.2407 22.7025H25.0359C25.4404 22.7025 25.7684 22.3746 25.7684 21.9701C25.7684 21.5656 25.4404 21.2377 25.0359 21.2377Z" fill="black"/>
<path d="M25.0359 24.356H21.2407C20.8362 24.356 20.5083 24.6839 20.5083 25.0884C20.5083 25.4929 20.8362 25.8208 21.2407 25.8208H25.0359C25.4404 25.8208 25.7684 25.4929 25.7684 25.0884C25.7684 24.6839 25.4404 24.356 25.0359 24.356Z" fill="black"/>
<path d="M48.0816 29.5543C48.1013 29.4446 48.1127 29.3326 48.1127 29.2187V21.3116C48.1127 20.8531 47.938 20.4183 47.6208 20.0873L42.458 14.6998C42.1243 14.3515 41.6559 14.1518 41.1727 14.1518H34.3336C33.9291 14.1518 33.6012 14.4797 33.6012 14.8842V16.5738C32.039 15.036 29.9248 14.1518 27.6882 14.1518H26.0681C25.6636 14.1518 25.3356 14.4797 25.3356 14.8842C25.3356 15.2887 25.6636 15.6167 26.0681 15.6167H27.6882C30.0059 15.6167 32.1653 16.7649 33.4646 18.6883C33.5037 18.7462 33.5502 18.7959 33.6012 18.8388V26.2789C33.5823 26.3015 33.5642 26.3251 33.5478 26.3506C32.2572 28.3529 30.0667 29.5482 27.6881 29.5482H25.4112H25.3457C24.328 28.4403 22.8646 27.744 21.2406 27.744C19.6167 27.744 18.1533 28.4403 17.1356 29.5482H12.2101C11.1924 28.4403 9.729 27.744 8.10498 27.744C7.04502 27.744 6.05352 28.0409 5.20967 28.5548C3.1207 27.2976 1.82959 25.0251 1.82959 22.5825C1.82959 18.7416 4.95439 15.6167 8.79531 15.6167H23.1383C23.5428 15.6167 23.8707 15.2888 23.8707 14.8843C23.8707 14.4798 23.5428 14.1519 23.1383 14.1519H16.9488V12.7724C16.9488 11.9004 16.2395 11.1912 15.3676 11.1912H11.3033C10.4313 11.1912 9.72207 11.9005 9.72207 12.7724V14.1519H8.79541C4.14678 14.1519 0.364844 17.9338 0.364844 22.5825C0.364844 25.3647 1.74893 27.9642 4.01885 29.5287C4.00996 29.5382 4.00049 29.5473 3.9917 29.557C3.95635 29.5517 3.92051 29.5482 3.88369 29.5482H2.04102C0.915625 29.5482 0 30.4638 0 31.5892V31.9678C0 33.0932 0.915527 34.0088 2.04102 34.0088H2.59385C2.95537 36.7143 5.28818 38.8089 8.10498 38.8089C10.9219 38.8089 13.2546 36.7143 13.6161 34.0088H15.7295C16.091 36.7143 18.4238 38.8089 21.2406 38.8089C24.0575 38.8089 26.3903 36.7143 26.7518 34.0088H27.9948C28.3993 34.0088 28.7272 33.6809 28.7272 33.2764C28.7272 32.8719 28.3993 32.544 27.9948 32.544H26.7518C26.6798 32.0054 26.5298 31.4914 26.3133 31.0129H27.6881H34.5168C34.3002 31.4914 34.1503 32.0054 34.0783 32.544H30.9245C30.52 32.544 30.1921 32.8719 30.1921 33.2764C30.1921 33.6809 30.52 34.0088 30.9245 34.0088H34.0783C34.4398 36.7143 36.7727 38.8089 39.5895 38.8089C42.4063 38.8089 44.7392 36.7143 45.1006 34.0088H47.959C49.0844 34.0088 50 33.0932 50 31.9678V31.5892C50 30.5051 49.1499 29.6183 48.0816 29.5543ZM11.1868 12.7723C11.1868 12.7081 11.2391 12.6559 11.3032 12.6559H15.3675C15.4316 12.6559 15.4839 12.7082 15.4839 12.7723V14.1518H11.1868V12.7723ZM16.1681 31.0129C15.9515 31.4914 15.8016 32.0054 15.7296 32.544H13.6162C13.5442 32.0054 13.3943 31.4914 13.1777 31.0129H16.1681ZM1.46484 31.9678V31.5892C1.46484 31.2715 1.72324 31.013 2.04102 31.013H3.03242C2.81582 31.4915 2.66592 32.0055 2.59395 32.5441H2.04102C1.72324 32.5441 1.46484 32.2856 1.46484 31.9678ZM8.10508 37.3442C5.84629 37.3442 4.0085 35.5194 4.0085 33.2765C4.0085 31.0335 5.84619 29.2088 8.10508 29.2088C10.3639 29.2088 12.2017 31.0336 12.2017 33.2765C12.2016 35.5194 10.3639 37.3442 8.10508 37.3442ZM21.2406 37.3442C18.9818 37.3442 17.1441 35.5194 17.1441 33.2765C17.1441 31.0335 18.9818 29.2088 21.2406 29.2088C23.4994 29.2088 25.3372 31.0336 25.3372 33.2765C25.3372 35.5194 23.4995 37.3442 21.2406 37.3442ZM46.6478 26.3392H45.8213C45.5321 26.3392 45.2969 26.104 45.2969 25.8149V25.6815C45.2969 25.3924 45.5321 25.1572 45.8213 25.1572H46.6478V26.3392ZM46.6376 21.2376H38.8845C38.7669 21.2376 38.6713 21.1419 38.6713 21.0245V18.2956C38.6713 18.178 38.7669 18.0824 38.8845 18.0824H43.6707L46.5631 21.1007C46.6002 21.1395 46.6249 21.1868 46.6376 21.2376ZM33.6012 28.5945V29.5482H32.4428C32.8544 29.2667 33.2424 28.9482 33.6012 28.5945ZM35.066 29.5481V15.6167H41.1727C41.2585 15.6167 41.3415 15.6518 41.4003 15.7132L42.2669 16.6175H38.8845C37.9592 16.6175 37.2064 17.3703 37.2064 18.2956V21.0245C37.2064 21.9498 37.9592 22.7025 38.8845 22.7025H46.6478V23.6922H45.8213C44.7244 23.6922 43.832 24.5846 43.832 25.6814V25.8148C43.832 26.9117 44.7244 27.804 45.8213 27.804H46.6478V29.2186C46.6478 29.3317 46.6037 29.4381 46.5237 29.5181C46.5141 29.5278 46.5057 29.538 46.4967 29.5481H43.6945C42.6769 28.4402 41.2135 27.7439 39.5895 27.7439C37.9655 27.7439 36.5021 28.4402 35.4845 29.5481H35.066ZM39.5895 37.3442C37.3307 37.3442 35.493 35.5194 35.493 33.2765C35.493 31.0335 37.3307 29.2088 39.5895 29.2088C41.8482 29.2088 43.686 31.0336 43.686 33.2765C43.686 35.5194 41.8483 37.3442 39.5895 37.3442ZM48.5352 31.9678C48.5352 32.2855 48.2767 32.544 47.959 32.544H45.1007C45.0287 32.0054 44.8787 31.4914 44.6622 31.0129H47.959C48.2767 31.0129 48.5352 31.2714 48.5352 31.5891V31.9678Z" fill="black"/>
</g>
<defs>
<clipPath id="clip0_865:118">
<rect width="50" height="50" fill="white"/>
</clipPath>
</defs>
</svg>
