<svg width="50" height="50" viewBox="0 0 50 50" fill="none" xmlns="http://www.w3.org/2000/svg">
<circle cx="20" cy="22" r="20" fill="#CEE8EF"/>
<path d="M17.7636 30.4379C17.6857 30.438 17.6085 30.4221 17.537 30.3914C17.4654 30.3606 17.4009 30.3155 17.3473 30.2589C17.2833 30.1909 17.2164 30.1251 17.1507 30.0605L17.0432 29.9576C16.7419 29.6563 16.4463 29.355 16.157 29.0485C16.1043 28.9942 16.0628 28.9299 16.0351 28.8594C16.0074 28.7889 15.994 28.7136 15.9957 28.6379C15.9973 28.5622 16.014 28.4875 16.0447 28.4183C16.0755 28.3491 16.1197 28.2867 16.1747 28.2347C16.2298 28.1827 16.2947 28.1421 16.3655 28.1154C16.4364 28.0887 16.5119 28.0763 16.5876 28.079C16.6633 28.0817 16.7377 28.0994 16.8065 28.1311C16.8752 28.1627 16.9371 28.2078 16.9883 28.2636C17.2702 28.5626 17.56 28.8559 17.8516 29.1492L17.9499 29.2464C18.0266 29.3213 18.1037 29.3973 18.1786 29.4751C18.2552 29.5563 18.3063 29.6581 18.3257 29.768C18.3451 29.878 18.3318 29.9912 18.2877 30.0936C18.2435 30.1961 18.1702 30.2835 18.077 30.3448C17.9838 30.4062 17.8746 30.4389 17.763 30.439L17.7636 30.4379Z" fill="black"/>
<path d="M37.5512 42.0212C33.2924 42.0212 26.6923 38.5713 20.3267 33.0181C20.2669 32.9698 20.2176 32.9099 20.1816 32.842C20.1455 32.7741 20.1235 32.6997 20.1169 32.6231C20.1103 32.5466 20.1192 32.4695 20.143 32.3964C20.1668 32.3234 20.2052 32.2559 20.2557 32.198C20.3062 32.1401 20.3679 32.0929 20.437 32.0594C20.5062 32.0259 20.5814 32.0066 20.6581 32.0028C20.7349 31.999 20.8116 32.0107 20.8837 32.0372C20.9559 32.0637 21.0219 32.1045 21.0779 32.1571C27.2446 37.5359 33.5571 40.8777 37.5512 40.8777C38.0581 40.9133 38.567 40.8473 39.048 40.6837C39.5291 40.52 39.9726 40.2619 40.3527 39.9246L43.6058 36.6658C43.6855 36.5874 43.7488 36.494 43.792 36.3909C43.8352 36.2879 43.8574 36.1772 43.8574 36.0654C43.8576 35.9557 43.8359 35.8469 43.7936 35.7456C43.7513 35.6443 43.6892 35.5525 43.611 35.4754L36.3408 28.2007C36.1793 28.046 35.9642 27.9596 35.7405 27.9596C35.5168 27.9596 35.3018 28.046 35.1402 28.2007L32.7166 30.63C30.5841 32.742 25.2338 29.6735 21.282 25.7194C17.3302 21.7653 14.26 16.4162 16.3651 14.2905L18.8036 11.8578C18.8826 11.7791 18.9453 11.6855 18.9881 11.5825C19.0309 11.4795 19.0529 11.369 19.0529 11.2575C19.0529 11.1459 19.0309 11.0355 18.9881 10.9324C18.9453 10.8294 18.8826 10.7359 18.8036 10.6572L11.5277 3.39388C11.4507 3.31469 11.3586 3.25173 11.2569 3.20872C11.1552 3.16571 11.0459 3.14352 10.9354 3.14347C10.8242 3.14324 10.7141 3.16511 10.6114 3.20781C10.5088 3.2505 10.4156 3.31317 10.3374 3.39217L7.07851 6.64646C4.95167 8.77845 6.44617 14.346 10.8862 20.8288C10.9298 20.8907 10.9606 20.9606 10.9768 21.0345C10.9931 21.1084 10.9946 21.1848 10.9811 21.2593C10.9677 21.3338 10.9396 21.4048 10.8984 21.4683C10.8573 21.5319 10.804 21.5866 10.7416 21.6293C10.6791 21.6721 10.6088 21.702 10.5347 21.7174C10.4607 21.7328 10.3842 21.7333 10.31 21.719C10.2357 21.7046 10.165 21.6756 10.1019 21.6337C10.0389 21.5918 9.98487 21.5378 9.94288 21.4749C5.10032 14.4111 3.69329 8.41883 6.26722 5.83861L9.52609 2.58488C9.71032 2.39907 9.92961 2.25169 10.1712 2.15129C10.4129 2.05089 10.672 1.99947 10.9337 2H10.9388C11.1993 2.00001 11.4572 2.05183 11.6975 2.15243C11.9378 2.25304 12.1556 2.40043 12.3384 2.58603L19.6086 9.84701C19.9819 10.2204 20.1916 10.7269 20.1916 11.2549C20.1916 11.7829 19.9819 12.2894 19.6086 12.6628L17.1781 15.0926C16.0221 16.2613 17.7573 20.5813 22.0899 24.9121C26.4225 29.243 30.7413 30.981 31.9065 29.829L34.3335 27.3963C34.7124 27.0335 35.2168 26.831 35.7414 26.831C36.266 26.831 36.7703 27.0335 37.1493 27.3963L44.4165 34.6687C44.6015 34.8529 44.7482 35.0718 44.8483 35.3129C44.9485 35.554 45 35.8124 45 36.0735C45 36.3345 44.9485 36.5929 44.8483 36.834C44.7482 37.0751 44.6015 37.294 44.4165 37.4782L41.1651 40.7371C40.6798 41.1828 40.1097 41.5262 39.4888 41.7468C38.8679 41.9675 38.2089 42.0608 37.5512 42.0212Z" fill="black"/>
<path d="M13.8878 26.2528C13.8057 26.2529 13.7246 26.2354 13.6499 26.2014C13.5752 26.1673 13.5088 26.1176 13.455 26.0556C13.0336 25.569 12.6906 25.1557 12.3744 24.7538C12.3265 24.6949 12.2908 24.6271 12.2694 24.5543C12.248 24.4815 12.2413 24.4051 12.2497 24.3297C12.2581 24.2543 12.2814 24.1813 12.3183 24.115C12.3551 24.0487 12.4049 23.9904 12.4645 23.9435C12.5242 23.8966 12.5926 23.862 12.6657 23.8418C12.7389 23.8216 12.8153 23.8162 12.8906 23.8258C12.9658 23.8355 13.0384 23.86 13.1041 23.898C13.1698 23.936 13.2273 23.9867 13.2732 24.0471C13.5779 24.4342 13.9101 24.8344 14.3195 25.3049C14.3912 25.3877 14.4377 25.4894 14.4533 25.5979C14.469 25.7063 14.4531 25.817 14.4076 25.9167C14.3621 26.0164 14.289 26.1009 14.1968 26.1602C14.1046 26.2195 13.9974 26.251 13.8878 26.2511V26.2528Z" fill="black"/>
<path d="M16.7716 15.2642C16.6965 15.2644 16.6221 15.2497 16.5527 15.2209C16.4833 15.1922 16.4203 15.1499 16.3674 15.0967L7.09506 5.82261C6.99083 5.71485 6.9331 5.57047 6.9343 5.42057C6.93549 5.27066 6.99552 5.12722 7.10145 5.02114C7.20738 4.91506 7.35074 4.85483 7.50064 4.85342C7.65055 4.85201 7.79501 4.90954 7.90291 5.01361L17.1758 14.2865C17.2558 14.3665 17.3102 14.4683 17.3322 14.5792C17.3543 14.6901 17.343 14.8051 17.2997 14.9095C17.2564 15.014 17.1832 15.1032 17.0892 15.1661C16.9952 15.2289 16.8847 15.2624 16.7716 15.2625V15.2642Z" fill="black"/>
<path d="M41.5825 40.0739C41.4309 40.0739 41.2855 40.0136 41.1783 39.9064L31.9082 30.6335C31.8041 30.5256 31.7464 30.3812 31.7477 30.2313C31.7491 30.0814 31.8092 29.938 31.9152 29.832C32.0212 29.726 32.1646 29.6659 32.3145 29.6646C32.4644 29.6633 32.6088 29.7209 32.7166 29.825L41.9873 39.0979C42.0672 39.1779 42.1217 39.2798 42.1437 39.3908C42.1657 39.5017 42.1544 39.6167 42.111 39.7212C42.0677 39.8257 41.9943 39.915 41.9003 39.9777C41.8062 40.0405 41.6956 40.074 41.5825 40.0739Z" fill="black"/>
<path d="M34.4238 23.1541C31.7335 23.1125 29.1695 22.0058 27.2939 20.0767C25.4183 18.1475 24.3843 15.5533 24.4185 12.8629C24.3843 10.1725 25.4183 7.57835 27.2939 5.64918C29.1695 3.72002 31.7335 2.61334 34.4238 2.57178C37.1141 2.61334 39.6781 3.72002 41.5537 5.64918C43.4293 7.57835 44.4633 10.1725 44.4291 12.8629C44.4633 15.5533 43.4293 18.1475 41.5537 20.0767C39.6781 22.0058 37.1141 23.1125 34.4238 23.1541ZM34.4238 3.71524C32.0367 3.75646 29.7633 4.74257 28.1021 6.45736C26.4409 8.17215 25.5274 10.4757 25.562 12.8629C25.5274 15.2502 26.4409 17.5537 28.1021 19.2685C29.7633 20.9833 32.0367 21.9694 34.4238 22.0106C36.8109 21.9694 39.0843 20.9833 40.7455 19.2685C42.4067 17.5537 43.3202 15.2502 43.2856 12.8629C43.3202 10.4757 42.4067 8.17215 40.7455 6.45736C39.0843 4.74257 36.8109 3.75646 34.4238 3.71524Z" fill="black"/>
<path d="M42.1422 19.0148C42.049 19.0148 41.9572 18.9921 41.8748 18.9485C41.7924 18.905 41.7219 18.842 41.6694 18.7649C40.8752 17.5705 39.7981 16.591 38.5339 15.9134C37.2697 15.2359 35.8576 14.8813 34.4233 14.8813C32.9889 14.8813 31.5768 15.2359 30.3126 15.9134C29.0484 16.591 27.9713 17.5705 27.1771 18.7649C27.1371 18.8317 27.0839 18.8896 27.0207 18.935C26.9575 18.9805 26.8857 19.0126 26.8097 19.0293C26.7337 19.046 26.6551 19.0471 26.5786 19.0323C26.5022 19.0176 26.4296 18.9874 26.3652 18.9437C26.3009 18.8999 26.2461 18.8434 26.2044 18.7778C26.1626 18.7121 26.1347 18.6386 26.1223 18.5617C26.11 18.4849 26.1134 18.4063 26.1325 18.3309C26.1516 18.2554 26.1858 18.1846 26.2332 18.1229C27.1323 16.7746 28.3502 15.6692 29.7791 14.9046C31.2079 14.14 32.8033 13.74 34.4238 13.74C36.0443 13.74 37.6398 14.14 39.0686 14.9046C40.4974 15.6692 41.7154 16.7746 42.6145 18.1229C42.6568 18.1849 42.6865 18.2547 42.7018 18.3282C42.7172 18.4018 42.7179 18.4776 42.7039 18.5514C42.69 18.6252 42.6616 18.6955 42.6204 18.7583C42.5793 18.8212 42.5262 18.8753 42.4641 18.9176C42.3691 18.9818 42.2569 19.0157 42.1422 19.0148Z" fill="black"/>
<path d="M34.4238 14.8811C33.6854 14.8811 32.9635 14.6621 32.3496 14.2519C31.7356 13.8417 31.2571 13.2586 30.9745 12.5764C30.692 11.8942 30.618 11.1436 30.7621 10.4194C30.9061 9.69515 31.2617 9.02992 31.7838 8.5078C32.306 7.98567 32.9712 7.6301 33.6954 7.48604C34.4196 7.34199 35.1703 7.41592 35.8525 7.6985C36.5346 7.98107 37.1177 8.45959 37.528 9.07354C37.9382 9.6875 38.1571 10.4093 38.1571 11.1477C38.1561 12.1375 37.7624 13.0865 37.0625 13.7865C36.3626 14.4864 35.4136 14.8801 34.4238 14.8811ZM34.4238 8.55777C33.9115 8.55777 33.4108 8.70967 32.9849 8.99425C32.5589 9.27884 32.227 9.68333 32.031 10.1566C31.8349 10.6298 31.7836 11.1506 31.8836 11.653C31.9835 12.1554 32.2302 12.6169 32.5924 12.9791C32.9546 13.3413 33.4161 13.5879 33.9185 13.6879C34.4209 13.7878 34.9416 13.7365 35.4149 13.5405C35.8881 13.3445 36.2926 13.0125 36.5772 12.5866C36.8618 12.1607 37.0137 11.66 37.0137 11.1477C37.0129 10.461 36.7398 9.80272 36.2543 9.31718C35.7687 8.83164 35.1104 8.55853 34.4238 8.55777Z" fill="black"/>
</svg>
