<svg width="50" height="50" viewBox="0 0 50 50" fill="none" xmlns="http://www.w3.org/2000/svg">
<circle cx="30" cy="20" r="20" fill="#CEE8EF"/>
<path d="M45.1508 28.3579H44.4774V22.2921C44.4774 21.3318 43.9994 20.4815 43.2695 19.9649V19.139C43.2695 17.941 42.2949 16.9664 41.0968 16.9664H40.594L42.5178 14.1433C43.1627 13.1971 42.9175 11.9025 41.9713 11.2576L28.9168 2.3613C28.4584 2.04884 27.9059 1.93353 27.3607 2.03698C26.8157 2.14025 26.3434 2.44954 26.031 2.90798L14.7634 19.4422H11.6279L12.3844 11.7843C12.3929 11.698 12.449 11.6232 12.5272 11.5938C13.5018 11.2263 14.3464 10.5401 14.9054 9.6615C14.9494 9.59233 15.0325 9.55278 15.1185 9.56148L20.0364 10.0473C20.389 10.0815 20.7027 9.82471 20.7375 9.47227C20.7723 9.11983 20.5149 8.80597 20.1624 8.77116L15.2445 8.2853C14.6736 8.22941 14.1292 8.49246 13.8234 8.97305C13.4124 9.61905 12.7914 10.1235 12.0748 10.3937C11.5354 10.5971 11.165 11.0815 11.1081 11.6582L10.3392 19.4421H9.52158L10.7179 7.33046C10.761 6.89452 11.1501 6.57425 11.5866 6.61793L21.5247 7.59967C21.8772 7.63368 22.191 7.37704 22.2258 7.0246C22.2606 6.67216 22.0032 6.3583 21.6508 6.3235L11.7126 5.34176C10.5732 5.22934 9.55427 6.06475 9.44168 7.20434L8.47735 16.9664H6.83511C5.63716 16.9664 4.66245 17.941 4.66245 19.139V19.7024C3.68238 20.1536 3 21.1443 3 22.2921V44.1501C3 45.7215 4.27846 47 5.85003 47H41.6274C43.1989 47 44.4774 45.7215 44.4774 44.1501V38.0844H45.1508C45.9457 38.0844 46.5923 37.4378 46.5923 36.643V29.7994C46.5924 29.0045 45.9457 28.3579 45.1508 28.3579ZM41.0968 18.2489C41.5878 18.2488 41.9871 18.6481 41.9871 19.1391V19.4658C41.8691 19.4508 41.7493 19.4423 41.6274 19.4423H38.9068L39.72 18.2489H41.0968ZM27.0907 3.63009C27.2103 3.45474 27.3909 3.33644 27.5994 3.29689C27.6492 3.28749 27.6992 3.28274 27.7489 3.28274C27.9068 3.28274 28.0611 3.33003 28.1946 3.42091L41.2491 12.3172C41.611 12.5639 41.7049 13.0591 41.4582 13.421L37.355 19.4421H36.3702L38.382 16.4901C38.7082 16.0113 38.7351 15.4021 38.4519 14.9C38.0756 14.2329 37.923 13.4474 38.0223 12.6881C38.0962 12.1232 37.8476 11.5718 37.3737 11.2489L30.6063 6.63709C30.1323 6.31409 29.5281 6.28447 29.0294 6.55983C28.3593 6.92985 27.5724 7.07514 26.8139 6.96897C26.2514 6.89004 25.6809 7.14404 25.3595 7.61558L17.3 19.4421H16.3153L27.0907 3.63009ZM27.3731 14.519C24.5808 14.519 22.2886 16.6963 22.1018 19.4421H18.8517L26.419 8.33778C26.4191 8.33778 26.4191 8.33778 26.4191 8.33778C26.4621 8.27458 26.5333 8.23696 26.6066 8.23696C26.6163 8.23696 26.6261 8.23767 26.6358 8.23899C27.6675 8.3833 28.7376 8.1859 29.6492 7.68255C29.7209 7.64282 29.813 7.64854 29.884 7.69688L36.6515 12.3088C36.7223 12.3571 36.7613 12.4408 36.7507 12.522C36.6156 13.5546 36.8232 14.6228 37.335 15.53C37.3761 15.6029 37.3711 15.6962 37.3224 15.7679L34.8185 19.4421H32.6447C32.4578 16.6963 30.1657 14.519 27.3731 14.519ZM31.3588 19.4422H23.3876C23.5713 17.4041 25.2881 15.8015 27.3731 15.8015C29.4583 15.8014 31.1752 17.4041 31.3588 19.4422ZM5.94487 19.139C5.94487 18.6481 6.34415 18.2487 6.83511 18.2487H8.3507L8.23284 19.4421H5.94487V19.139ZM4.28241 22.2921C4.28241 21.4278 4.98563 20.7246 5.85003 20.7246H41.6274C42.4918 20.7246 43.195 21.4278 43.195 22.2921V24.0714H4.28241V22.2921ZM43.195 44.1501C43.195 45.0144 42.4918 45.7176 41.6274 45.7176H5.85003C4.98563 45.7176 4.28241 45.0144 4.28241 44.1501V42.3708H7.74021C8.09441 42.3708 8.38137 42.0838 8.38137 41.7296C8.38137 41.3755 8.09432 41.0885 7.74021 41.0885H4.28241V25.3538H43.195V28.3579H37.0983H37.0982C35.1773 28.3579 33.5134 29.4776 32.7237 31.0984C32.721 31.1038 32.718 31.1091 32.7153 31.1146C32.7086 31.1284 32.7028 31.1427 32.6963 31.1566C32.6023 31.3563 32.5205 31.5632 32.454 31.7766C32.4538 31.7772 32.4537 31.7777 32.4535 31.7783C32.3115 32.2344 32.235 32.7189 32.235 33.2211C32.235 35.9028 34.4166 38.0844 37.0982 38.0844H37.0982H43.1949V41.0885H11.8459C11.4917 41.0885 11.2048 41.3755 11.2048 41.7296C11.2048 42.0838 11.4918 42.3708 11.8459 42.3708H43.195V44.1501ZM45.31 36.6429C45.31 36.7306 45.2386 36.802 45.1508 36.802H37.0984C35.7409 36.802 34.5574 36.0427 33.9504 34.9266C33.9228 34.8758 33.8964 34.8243 33.8712 34.7722C33.8208 34.6679 33.7754 34.5608 33.7352 34.4511C33.5944 34.0673 33.5176 33.653 33.5176 33.2211C33.5176 32.7892 33.5945 32.3749 33.7352 31.9912C33.7754 31.8816 33.8209 31.7744 33.8712 31.67C33.8964 31.6179 33.9228 31.5664 33.9504 31.5157C34.5574 30.3996 35.7409 29.6403 37.0984 29.6403H45.1508C45.2385 29.6403 45.31 29.7116 45.31 29.7994V36.6429Z" fill="black"/>
<path d="M37.2486 30.6195C35.814 30.6195 34.647 31.7866 34.647 33.2211C34.647 34.6555 35.814 35.8225 37.2486 35.8225C38.6832 35.8225 39.8502 34.6555 39.8502 33.2211C39.8502 31.7866 38.6832 30.6195 37.2486 30.6195ZM37.2486 34.5401C36.5212 34.5401 35.9294 33.9484 35.9294 33.2211C35.9294 32.4938 36.5212 31.9019 37.2486 31.9019C37.976 31.9019 38.5678 32.4937 38.5678 33.2211C38.5678 33.9485 37.976 34.5401 37.2486 34.5401Z" fill="black"/>
</svg>
