<svg width="15" height="15" viewBox="0 0 15 15" fill="none" xmlns="http://www.w3.org/2000/svg">
<path d="M12.2744 9.258C11.7684 8.75849 11.1368 8.75849 10.6341 9.258C10.2506 9.63828 9.86706 10.0186 9.49001 10.4053C9.38689 10.5116 9.29987 10.5342 9.17419 10.4633C8.92605 10.3279 8.66179 10.2184 8.42331 10.0701C7.31149 9.37079 6.38014 8.47167 5.55514 7.45975C5.14586 6.95702 4.7817 6.41883 4.52711 5.81297C4.47554 5.69051 4.48521 5.60994 4.58511 5.51004C4.96861 5.13943 5.34244 4.75916 5.71949 4.37888C6.24479 3.85037 6.24479 3.23161 5.71627 2.69987C5.41656 2.39694 5.11686 2.10046 4.81715 1.79753C4.50777 1.48815 4.20162 1.17555 3.88902 0.869399C3.38306 0.376331 2.75142 0.376331 2.24868 0.872622C1.86196 1.2529 1.49136 1.64284 1.09819 2.01667C0.73403 2.36149 0.550338 2.78366 0.511666 3.27673C0.450435 4.07918 0.647018 4.8365 0.924167 5.57449C1.49136 7.10204 2.35503 8.45878 3.4024 9.70273C4.81715 11.385 6.50582 12.7159 8.48132 13.6763C9.37077 14.1081 10.2925 14.4401 11.2947 14.4948C11.9844 14.5335 12.5838 14.3595 13.0639 13.8213C13.3927 13.4539 13.7633 13.1188 14.1113 12.7675C14.6269 12.2454 14.6302 11.6138 14.1178 11.0981C13.5055 10.4826 12.8899 9.87031 12.2744 9.258Z" fill="#4F4F4F"/>
</svg>
